<svg width="15" height="10" viewBox="0 0 15 10" fill="none" xmlns="http://www.w3.org/2000/svg">
<path fill-rule="evenodd" clip-rule="evenodd" d="M13.9828 2.52294C12.0717 0.890572 9.6574 0 7.13272 0C4.60056 0 2.17953 0.89589 0.266142 2.53708L0.103645 2.67646C-0.0277638 2.78918 -0.0353068 2.98954 0.0872572 3.11176L1.2142 4.23557C1.32359 4.34466 1.4985 4.3521 1.6168 4.2527L1.75641 4.13541C3.26327 2.86943 5.15517 2.18035 7.13272 2.18035C9.10354 2.18035 10.9894 2.86472 12.494 4.12283L12.6336 4.23952C12.7519 4.33847 12.9264 4.33084 13.0356 4.22195L14.1627 3.09797C14.2855 2.97558 14.2777 2.77488 14.1459 2.66228L13.9828 2.52294ZM7.13272 3.46979C8.72355 3.46979 10.251 3.99754 11.4953 4.97486L11.6711 5.11298C11.8113 5.2231 11.8236 5.43059 11.6974 5.55643L10.5667 6.68407C10.4621 6.78836 10.2966 6.80034 10.178 6.7122L10.0401 6.60976C9.19975 5.98518 8.18639 5.65015 7.13272 5.65015C6.07256 5.65015 5.05328 5.98934 4.2101 6.62109L4.07212 6.72448C3.95351 6.81334 3.78742 6.80164 3.68252 6.69703L2.55216 5.56981C2.42623 5.44423 2.43819 5.23727 2.57774 5.12694L2.75259 4.98871C3.99984 4.00267 5.53421 3.46979 7.13272 3.46979ZM7.13272 6.93959C7.77222 6.93959 8.3936 7.10763 8.94112 7.42805L9.16295 7.55788C9.33114 7.65631 9.36071 7.88666 9.22282 8.02417L7.32874 9.91299C7.2124 10.029 7.02377 10.029 6.90743 9.91299L5.02552 8.03631C4.88824 7.8994 4.91685 7.67022 5.08361 7.57107L5.30296 7.44065C5.8555 7.11212 6.48478 6.93959 7.13272 6.93959Z" fill="black"/>
</svg>
